# Blender v2.78 (sub 0) OBJ File: 'frame.blend'
# www.blender.org
mtllib frame1.mtl
o Cube
v 0.021509 0.404070 -0.724970
v 0.021509 -0.406520 -0.724970
v -0.051400 -0.500000 -0.826733
v -0.051400 0.500000 -0.826733
v 0.021509 0.404070 0.724970
v 0.021509 -0.406520 0.724970
v -0.051400 -0.500000 0.826733
v -0.051400 0.500000 0.826733
v 0.051400 0.500000 -0.826733
v 0.051400 -0.500000 -0.826733
v 0.051400 0.500000 0.826733
v 0.051400 -0.500000 0.826733
v -0.018641 0.404070 -0.724970
v -0.018641 -0.406520 -0.724970
v -0.018641 0.404070 0.724970
v -0.018641 -0.406520 0.724970
vt 0.5477 0.5379
vt 0.9983 0.5379
vt 0.9983 0.9884
vt 0.5477 0.9884
vt 0.5496 0.5423
vt 0.9984 0.5423
vt 0.9984 0.9911
vt 0.5496 0.9911
vt 0.5823 0.0330
vt 0.9757 0.0330
vt 0.9757 0.4265
vt 0.5823 0.4265
vt 0.6222 0.5947
vt 0.9518 0.5947
vt 0.9518 0.9244
vt 0.6222 0.9244
vt 0.6013 0.5758
vt 0.9547 0.5758
vt 0.9547 0.9291
vt 0.6013 0.9291
vt 0.6691 0.6170
vt 0.9329 0.6170
vt 0.9329 0.8808
vt 0.6691 0.8808
vt 0.5726 0.5620
vt 0.9394 0.5620
vt 0.9394 0.9287
vt 0.5726 0.9287
vt 0.5752 0.5988
vt 0.8328 0.5988
vt 0.8328 0.8563
vt 0.5752 0.8563
vt 0.6070 0.6346
vt 0.9350 0.6346
vt 0.9350 0.9627
vt 0.6070 0.9627
vt 0.5602 0.5767
vt 0.9118 0.5767
vt 0.9118 0.9282
vt 0.5602 0.9282
vt 0.0010 1.0000
vt 0.4950 1.0000
vt 0.4950 0.0000
vt 0.0010 0.0000
vt 0.5834 0.0516
vt 0.9326 0.0516
vt 0.9326 0.4008
vt 0.5834 0.4008
vt 0.5840 0.0170
vt 0.9740 0.0170
vt 0.9740 0.4070
vt 0.5840 0.4070
vt 0.5783 0.0501
vt 0.9377 0.0501
vt 0.9377 0.4095
vt 0.5783 0.4095
vn 0.0000 0.0000 -1.0000
vn 0.0000 0.0000 1.0000
vn 0.0000 -1.0000 -0.0000
vn -1.0000 0.0000 -0.0000
vn 0.0000 1.0000 0.0000
vn 0.9595 0.0000 0.2818
vn 0.9547 -0.2975 -0.0000
vn 0.9525 0.3046 0.0000
vn 0.9595 -0.0000 -0.2818
vn 1.0000 -0.0000 0.0000
usemtl Material
s off
f 9/1/1 10/2/1 3/3/1 4/4/1
f 11/5/2 8/6/2 7/7/2 12/8/2
f 1/9/3 5/10/3 15/11/3 13/12/3
f 10/13/3 12/14/3 7/15/3 3/16/3
f 3/17/4 7/18/4 8/19/4 4/20/4
f 11/21/5 9/22/5 4/23/5 8/24/5
f 1/25/6 2/26/6 10/27/6 9/28/6
f 5/29/7 1/30/7 9/31/7 11/32/7
f 2/33/8 6/34/8 12/35/8 10/36/8
f 6/37/9 5/38/9 11/39/9 12/40/9
f 13/41/10 15/42/10 16/43/10 14/44/10
f 6/45/5 2/46/5 14/47/5 16/48/5
f 2/49/2 1/50/2 13/51/2 14/52/2
f 5/53/1 6/54/1 16/55/1 15/56/1
