# Blender v2.78 (sub 0) OBJ File: 'table.blend'
# www.blender.org
mtllib table.mtl
o Cube_Cube.001
v -0.752271 0.034434 0.461493
v -0.739026 -0.074014 0.489135
v -0.752271 0.034434 -0.461493
v -0.739026 -0.074014 -0.489135
v 0.752271 0.034434 0.461493
v 0.739026 -0.074014 0.489135
v 0.752271 0.034434 -0.461493
v 0.739026 -0.074014 -0.489135
v -0.997262 0.034434 0.000000
v -0.807934 0.000000 0.534743
v -1.013440 -0.074014 0.000000
v -0.807934 0.000000 -0.534743
v -1.107934 0.000000 0.000000
v -0.997262 0.034434 0.243147
v -1.013440 -0.074014 0.244568
v -1.107934 0.000000 0.267372
v -1.013440 -0.074014 -0.244568
v -0.997262 0.034434 -0.243147
v -1.107934 0.000000 -0.267372
v 0.807934 0.000000 -0.534743
v 0.997262 0.034434 0.000000
v 1.013440 -0.074014 0.000000
v 0.807934 0.000000 0.534743
v 1.107934 0.000000 0.000000
v 0.997262 0.034434 -0.243147
v 1.013440 -0.074014 -0.244568
v 1.107934 0.000000 -0.267372
v 1.013440 -0.074014 0.244568
v 0.997262 0.034434 0.243147
v 1.107934 0.000000 0.267372
v -1.107934 0.083992 0.267372
v -0.807934 0.083992 0.534743
v 0.807934 0.083992 -0.534743
v -0.807934 0.083992 -0.534743
v 1.107934 0.083992 -0.267372
v 0.807934 0.083992 0.534743
v -1.107934 0.083992 -0.267372
v -1.107934 0.083992 0.000000
v 1.107934 0.083992 0.267372
v 1.107934 0.083992 0.000000
v -0.788151 -0.005276 0.197376
v -0.647096 -0.005276 0.323090
v 0.647096 -0.005276 -0.323090
v -0.647096 -0.005276 -0.323090
v 0.788151 -0.005276 -0.197376
v 0.647096 -0.005276 0.323090
v -0.788151 -0.005276 -0.197376
v -0.788151 -0.005276 0.000000
v 0.788151 -0.005276 0.197376
v 0.788151 -0.005276 0.000000
v -0.997262 -0.005276 0.243147
v -0.752271 -0.005276 0.461493
v 0.752271 -0.005276 -0.461493
v -0.752271 -0.005276 -0.461493
v 0.997262 -0.005276 -0.243147
v 0.752271 -0.005276 0.461493
v -0.997262 -0.005276 -0.243147
v -0.997262 -0.005276 0.000000
v 0.997262 -0.005276 0.243147
v 0.997262 -0.005276 0.000000
vt 0.4065 0.4561
vt 0.2747 0.4627
vt 0.2759 0.3924
vt 0.4079 0.3793
vt 0.2747 0.6866
vt 0.4247 0.6866
vt 0.4247 0.9938
vt 0.2747 0.9938
vt 0.6853 0.2305
vt 0.8171 0.2239
vt 0.8159 0.2942
vt 0.6839 0.3073
vt 0.5580 0.3793
vt 0.7080 0.3793
vt 0.7080 0.6866
vt 0.5580 0.6866
vt 0.0901 0.9790
vt 0.0891 0.9162
vt 0.1600 0.9162
vt 0.1611 0.9790
vt 0.2747 0.0522
vt 0.2747 0.3333
vt 0.2060 0.3854
vt 0.1373 0.3854
vt 0.0687 0.3854
vt 0.0000 0.3333
vt 0.0000 0.0522
vt 0.0687 0.0000
vt 0.1373 0.0000
vt 0.2060 0.0000
vt 0.5566 0.4561
vt 0.5580 0.3793
vt 0.5566 0.6097
vt 0.4065 0.6097
vt 0.4065 0.5329
vt 0.5566 0.5329
vt 0.2747 0.6032
vt 0.2747 0.5329
vt 0.4079 0.6866
vt 0.2759 0.6735
vt 0.5352 0.2305
vt 0.5338 0.3073
vt 0.5352 0.0768
vt 0.6853 0.0768
vt 0.6853 0.1536
vt 0.5352 0.1536
vt 0.8171 0.0834
vt 0.8171 0.1536
vt 0.6839 0.0000
vt 0.8159 0.0131
vt 0.5338 0.0000
vt 0.0013 1.0000
vt 0.0000 0.9232
vt 0.9291 0.3899
vt 0.9291 0.6760
vt 0.8398 0.6866
vt 0.8398 0.3793
vt 0.0891 0.6089
vt 0.0901 0.6717
vt 0.0013 0.6927
vt 0.0000 0.6159
vt 0.9063 0.0106
vt 0.9063 0.2967
vt 0.8171 0.3073
vt 0.8171 0.0000
vt 0.0891 0.7765
vt 0.0891 0.8464
vt 0.0000 0.8464
vt 0.0000 0.7695
vt 0.0901 0.7138
vt 0.0013 0.6927
vt 0.0891 0.4692
vt 0.0891 0.5391
vt 0.0000 0.5391
vt 0.0000 0.4623
vt 0.0901 0.4065
vt 0.0013 0.3854
vt 0.4950 0.0666
vt 0.4950 0.3127
vt 0.4597 0.3395
vt 0.4043 0.3395
vt 0.3488 0.3395
vt 0.3135 0.3127
vt 0.3135 0.0666
vt 0.3488 0.0398
vt 0.4043 0.0398
vt 0.4597 0.0398
vt 0.1600 0.4692
vt 0.1600 0.5391
vt 0.1600 0.7765
vt 0.1600 0.8464
vt 1.0000 0.3899
vt 1.0000 0.6760
vt 0.1600 0.6089
vt 0.1611 0.6717
vt 0.1611 0.4065
vt 0.1611 0.7138
vt 0.9773 0.0106
vt 0.9773 0.2967
vt 0.2747 0.0466
vt 0.3360 0.0000
vt 0.5338 0.0466
vt 0.5338 0.3327
vt 0.4725 0.3793
vt 0.2747 0.3327
vt 0.4043 0.0000
vt 0.4725 0.0000
vt 0.4043 0.3793
vt 0.3360 0.3793
vt 0.5566 0.6997
vt 0.5566 0.9807
vt 0.8398 0.3924
vt 0.8398 0.6735
vn 0.4522 0.7336 0.5073
vn 0.0000 0.0000 1.0000
vn -0.4522 0.7336 -0.5073
vn 0.0000 0.0000 -1.0000
vn -0.6653 0.0000 0.7465
vn 0.0000 1.0000 -0.0000
vn 0.6653 0.0000 0.7465
vn 1.0000 0.0000 0.0000
vn 0.6166 0.7873 0.0000
vn 0.4522 0.7336 -0.5073
vn 0.6653 0.0000 -0.7465
vn -0.6653 0.0000 -0.7465
vn -1.0000 0.0000 0.0000
vn -0.6166 0.7873 0.0000
vn -0.4522 0.7336 0.5073
vn -0.3163 -0.8798 0.3549
vn 0.0000 -0.8282 -0.5604
vn 0.3163 -0.8798 -0.3549
vn 0.0000 -0.8282 0.5604
vn -0.4087 -0.9127 0.0000
vn -0.3163 -0.8798 -0.3549
vn 0.4087 -0.9127 0.0000
vn 0.3163 -0.8798 0.3549
vn 0.0000 -1.0000 -0.0000
vn 0.0000 0.5246 0.8513
vn 0.0000 0.5246 -0.8513
usemtl Material.001
s off
f 19/1/1 17/2/1 4/3/1 12/4/1
f 34/5/2 12/6/2 20/7/2 33/8/2
f 30/9/3 28/10/3 6/11/3 23/12/3
f 36/13/4 23/14/4 10/15/4 32/16/4
f 1/17/5 14/18/5 51/19/5 52/20/5
f 8/21/6 4/22/6 17/23/6 11/24/6 15/25/6 2/26/6 6/27/6 28/28/6 22/29/6 26/30/6
f 37/31/7 19/1/7 12/4/7 34/32/7
f 31/33/8 16/34/8 13/35/8 38/36/8
f 16/34/9 15/37/9 11/38/9 13/35/9
f 10/39/10 2/40/10 15/37/10 16/34/10
f 32/16/11 10/39/11 16/34/11 31/33/11
f 38/36/8 13/35/8 19/1/8 37/31/8
f 13/35/9 11/38/9 17/2/9 19/1/9
f 39/41/12 30/9/12 23/12/12 36/42/12
f 35/43/13 27/44/13 24/45/13 40/46/13
f 27/44/14 26/47/14 22/48/14 24/45/14
f 20/49/15 8/50/15 26/47/15 27/44/15
f 33/51/5 20/49/5 27/44/5 35/43/5
f 40/46/13 24/45/13 30/9/13 39/41/13
f 24/45/14 22/48/14 28/10/14 30/9/14
f 14/18/16 1/17/16 32/52/16 31/53/16
f 7/54/17 3/55/17 34/56/17 33/57/17
f 25/58/18 7/59/18 33/60/18 35/61/18
f 1/62/19 5/63/19 36/64/19 32/65/19
f 18/66/20 9/67/20 38/68/20 37/69/20
f 9/67/20 14/18/20 31/53/20 38/68/20
f 3/70/21 18/66/21 37/69/21 34/71/21
f 29/72/22 21/73/22 40/74/22 39/75/22
f 21/73/22 25/58/22 35/61/22 40/74/22
f 5/76/23 29/72/23 39/75/23 36/77/23
f 44/78/24 43/79/24 45/80/24 50/81/24 49/82/24 46/83/24 42/84/24 41/85/24 48/86/24 47/87/24
f 21/73/8 29/72/8 59/88/8 60/89/8
f 9/67/13 18/66/13 57/90/13 58/91/13
f 3/55/4 7/54/4 53/92/4 54/93/4
f 25/58/8 21/73/8 60/89/8 55/94/8
f 14/18/13 9/67/13 58/91/13 51/19/13
f 7/59/11 25/58/11 55/94/11 53/95/11
f 29/72/7 5/76/7 56/96/7 59/88/7
f 18/66/12 3/70/12 54/97/12 57/90/12
f 5/63/2 1/62/2 52/98/2 56/99/2
f 41/85/24 42/84/24 52/100/24 51/101/24
f 43/79/24 44/78/24 54/102/24 53/103/24
f 45/80/24 43/79/24 53/103/24 55/104/24
f 42/84/24 46/83/24 56/105/24 52/100/24
f 47/87/24 48/86/24 58/106/24 57/107/24
f 48/86/24 41/85/24 51/101/24 58/106/24
f 44/78/24 47/87/24 57/107/24 54/102/24
f 49/82/24 50/81/24 60/108/24 59/109/24
f 50/81/24 45/80/24 55/104/24 60/108/24
f 46/83/24 49/82/24 59/109/24 56/105/24
f 20/7/25 12/6/25 4/110/25 8/111/25
f 10/15/26 23/14/26 6/112/26 2/113/26
